<?xml version="1.0" encoding="UTF-8"?>
<svg version="1.1" xmlns="http://www.w3.org/2000/svg" width="15" height="17">
<path d="M0 0 C3.63 0 7.26 0 11 0 C11 0.66 11 1.32 11 2 C8.36 2 5.72 2 3 2 C3.33 3.32 3.66 4.64 4 6 C6.31 6 8.62 6 11 6 C11 6.66 11 7.32 11 8 C8.29120665 9.35439668 5.99066732 9.06501451 3 9 C3 10.32 3 11.64 3 13 C5.64 13 8.28 13 11 13 C11 13.66 11 14.32 11 15 C9.35425434 15.02688151 7.70838587 15.04634123 6.0625 15.0625 C5.14597656 15.07410156 4.22945313 15.08570313 3.28515625 15.09765625 C1 15 1 15 0 14 C-0.07271741 11.64686445 -0.08370868 9.29166332 -0.0625 6.9375 C-0.05347656 5.64714844 -0.04445312 4.35679687 -0.03515625 3.02734375 C-0.02355469 2.02832031 -0.01195313 1.02929688 0 0 Z " fill="#64CA8F" transform="translate(2,1)"/>
</svg>
